<?xml version="1.0" encoding="UTF-8" standalone="no"?>
<!DOCTYPE svg PUBLIC "-//W3C//DTD SVG 1.1//EN"
 "http://www.w3.org/Graphics/SVG/1.1/DTD/svg11.dtd">
<!-- Generated by graphviz version 2.43.0 (0)
 -->
<!-- Title: pastafarianism Pages: 1 -->
<svg width="360pt" height="332pt"
 viewBox="0.00 0.00 360.02 332.00" xmlns="http://www.w3.org/2000/svg" xmlns:xlink="http://www.w3.org/1999/xlink">
<g id="graph0" class="graph" transform="scale(1 1) rotate(0) translate(4 328)">
<title>pastafarianism</title>
<polygon fill="white" stroke="transparent" points="-4,4 -4,-328 356.02,-328 356.02,4 -4,4"/>
<!-- Root -->
<g id="node1" class="node">
<title>Root</title>
<polygon fill="cyan" stroke="black" points="174.49,-298.54 174.49,-313.46 156.05,-324 129.95,-324 111.51,-313.46 111.51,-298.54 129.95,-288 156.05,-288 174.49,-298.54"/>
<text text-anchor="middle" x="143" y="-303.8" font-family="Times,serif" font-size="9.00">Ⓜ Root</text>
</g>
<!-- AnaAkis -->
<g id="node2" class="node">
<title>AnaAkis</title>
<polygon fill="orange" stroke="black" points="137,-252 71,-252 71,-216 137,-216 137,-252"/>
<text text-anchor="middle" x="104" y="-231.8" font-family="Times,serif" font-size="9.00">Ⓜ AnaAkis</text>
</g>
<!-- Root&#45;&gt;AnaAkis -->
<g id="edge1" class="edge">
<title>Root&#45;&gt;AnaAkis</title>
<path fill="none" stroke="black" d="M133.36,-287.7C128.87,-279.64 123.44,-269.89 118.48,-260.98"/>
<polygon fill="black" stroke="black" points="121.45,-259.14 113.53,-252.1 115.34,-262.54 121.45,-259.14"/>
</g>
<!-- Idle -->
<g id="node12" class="node">
<title>Idle</title>
<ellipse fill="gray" stroke="black" cx="182" cy="-234" rx="27" ry="18"/>
<text text-anchor="middle" x="182" y="-231.8" font-family="Times,serif" font-size="9.00">Idle</text>
</g>
<!-- Root&#45;&gt;Idle -->
<g id="edge11" class="edge">
<title>Root&#45;&gt;Idle</title>
<path fill="none" stroke="black" d="M152.64,-287.7C157.31,-279.32 163,-269.1 168.13,-259.9"/>
<polygon fill="black" stroke="black" points="171.2,-261.58 173.01,-251.14 165.08,-258.18 171.2,-261.58"/>
</g>
<!-- Uyan -->
<g id="node3" class="node">
<title>Uyan</title>
<ellipse fill="gray" stroke="black" cx="27" cy="-162" rx="27" ry="18"/>
<text text-anchor="middle" x="27" y="-159.8" font-family="Times,serif" font-size="9.00">Uyan</text>
</g>
<!-- AnaAkis&#45;&gt;Uyan -->
<g id="edge2" class="edge">
<title>AnaAkis&#45;&gt;Uyan</title>
<path fill="none" stroke="black" d="M84.97,-215.7C74.5,-206.18 61.43,-194.3 50.36,-184.23"/>
<polygon fill="black" stroke="black" points="52.46,-181.42 42.71,-177.28 47.75,-186.6 52.46,-181.42"/>
</g>
<!-- Kahvalti -->
<g id="node4" class="node">
<title>Kahvalti</title>
<ellipse fill="gray" stroke="black" cx="104" cy="-162" rx="31.51" ry="18"/>
<text text-anchor="middle" x="104" y="-159.8" font-family="Times,serif" font-size="9.00">Kahvalti</text>
</g>
<!-- AnaAkis&#45;&gt;Kahvalti -->
<g id="edge3" class="edge">
<title>AnaAkis&#45;&gt;Kahvalti</title>
<path fill="none" stroke="black" d="M104,-215.7C104,-207.98 104,-198.71 104,-190.11"/>
<polygon fill="black" stroke="black" points="107.5,-190.1 104,-180.1 100.5,-190.1 107.5,-190.1"/>
</g>
<!-- SecimAgaci -->
<g id="node5" class="node">
<title>SecimAgaci</title>
<polygon fill="cyan" stroke="black" points="257.74,-154.54 257.74,-169.46 227.43,-180 184.57,-180 154.26,-169.46 154.26,-154.54 184.57,-144 227.43,-144 257.74,-154.54"/>
<text text-anchor="middle" x="206" y="-159.8" font-family="Times,serif" font-size="9.00">Ⓜ SecimAgaci</text>
</g>
<!-- AnaAkis&#45;&gt;SecimAgaci -->
<g id="edge4" class="edge">
<title>AnaAkis&#45;&gt;SecimAgaci</title>
<path fill="none" stroke="black" d="M128.95,-215.88C142.33,-206.69 158.99,-195.26 173.38,-185.38"/>
<polygon fill="black" stroke="black" points="175.74,-188.01 182.01,-179.47 171.78,-182.24 175.74,-188.01"/>
</g>
<!-- CalisAkisi -->
<g id="node6" class="node">
<title>CalisAkisi</title>
<polygon fill="orange" stroke="black" points="197,-108 123,-108 123,-72 197,-72 197,-108"/>
<text text-anchor="middle" x="160" y="-87.8" font-family="Times,serif" font-size="9.00">Ⓜ CalisAkisi</text>
</g>
<!-- SecimAgaci&#45;&gt;CalisAkisi -->
<g id="edge5" class="edge">
<title>SecimAgaci&#45;&gt;CalisAkisi</title>
<path fill="none" stroke="black" d="M194.63,-143.7C189.28,-135.56 182.8,-125.69 176.89,-116.7"/>
<polygon fill="black" stroke="black" points="179.66,-114.54 171.24,-108.1 173.81,-118.38 179.66,-114.54"/>
</g>
<!-- SporAkisi -->
<g id="node9" class="node">
<title>SporAkisi</title>
<polygon fill="orange" stroke="black" points="288.5,-108 215.5,-108 215.5,-72 288.5,-72 288.5,-108"/>
<text text-anchor="middle" x="252" y="-87.8" font-family="Times,serif" font-size="9.00">Ⓜ SporAkisi</text>
</g>
<!-- SecimAgaci&#45;&gt;SporAkisi -->
<g id="edge8" class="edge">
<title>SecimAgaci&#45;&gt;SporAkisi</title>
<path fill="none" stroke="black" d="M217.37,-143.7C222.72,-135.56 229.2,-125.69 235.11,-116.7"/>
<polygon fill="black" stroke="black" points="238.19,-118.38 240.76,-108.1 232.34,-114.54 238.19,-118.38"/>
</g>
<!-- Calis -->
<g id="node7" class="node">
<title>Calis</title>
<ellipse fill="gray" stroke="black" cx="93" cy="-18" rx="27" ry="18"/>
<text text-anchor="middle" x="93" y="-15.8" font-family="Times,serif" font-size="9.00">Calis</text>
</g>
<!-- CalisAkisi&#45;&gt;Calis -->
<g id="edge6" class="edge">
<title>CalisAkisi&#45;&gt;Calis</title>
<path fill="none" stroke="black" d="M143.44,-71.7C134.63,-62.5 123.71,-51.08 114.28,-41.23"/>
<polygon fill="black" stroke="black" points="116.55,-38.54 107.11,-33.74 111.49,-43.38 116.55,-38.54"/>
</g>
<!-- Dinlen -->
<g id="node8" class="node">
<title>Dinlen</title>
<ellipse fill="gray" stroke="black" cx="165" cy="-18" rx="27.27" ry="18"/>
<text text-anchor="middle" x="165" y="-15.8" font-family="Times,serif" font-size="9.00">Dinlen</text>
</g>
<!-- CalisAkisi&#45;&gt;Dinlen -->
<g id="edge7" class="edge">
<title>CalisAkisi&#45;&gt;Dinlen</title>
<path fill="none" stroke="black" d="M161.24,-71.7C161.79,-63.98 162.45,-54.71 163.06,-46.11"/>
<polygon fill="black" stroke="black" points="166.56,-46.33 163.78,-36.1 159.57,-45.83 166.56,-46.33"/>
</g>
<!-- Spor -->
<g id="node10" class="node">
<title>Spor</title>
<ellipse fill="gray" stroke="black" cx="247" cy="-18" rx="27" ry="18"/>
<text text-anchor="middle" x="247" y="-15.8" font-family="Times,serif" font-size="9.00">Spor</text>
</g>
<!-- SporAkisi&#45;&gt;Spor -->
<g id="edge9" class="edge">
<title>SporAkisi&#45;&gt;Spor</title>
<path fill="none" stroke="black" d="M250.76,-71.7C250.21,-63.98 249.55,-54.71 248.94,-46.11"/>
<polygon fill="black" stroke="black" points="252.43,-45.83 248.22,-36.1 245.44,-46.33 252.43,-45.83"/>
</g>
<!-- Dinlen* -->
<g id="node11" class="node">
<title>Dinlen*</title>
<ellipse fill="gray" stroke="black" cx="322" cy="-18" rx="30.04" ry="18"/>
<text text-anchor="middle" x="322" y="-15.8" font-family="Times,serif" font-size="9.00">Dinlen*</text>
</g>
<!-- SporAkisi&#45;&gt;Dinlen* -->
<g id="edge10" class="edge">
<title>SporAkisi&#45;&gt;Dinlen*</title>
<path fill="none" stroke="black" d="M269.3,-71.7C278.59,-62.41 290.14,-50.86 300.06,-40.94"/>
<polygon fill="black" stroke="black" points="302.67,-43.28 307.26,-33.74 297.72,-38.33 302.67,-43.28"/>
</g>
</g>
</svg>
